<svg id="az-snake" class="closed" style="background:#ccde20;" width="60" height="60">
    <g id="snake">
        <path style="fill:#ffffff;" d="M40.4,19.3H28.6c-0.6-0.1-1.1-0.5-1.1-1.1v-2H44v9.3H20.1c-0.5,0-0.9,0.4-0.9,0.9v1.2c0,0.5,0.4,0.9,0.9,0.9
                H44v9.3H20.1c-0.5,0-0.9,0.4-0.9,0.9V40c0,0.5,0.4,0.9,0.9,0.9h13.1v2c-0.1,0.6-0.5,1.1-1.1,1.1H16.2v-9.3h24.1
                c0.5,0,0.9-0.4,0.9-0.9v-1.2c0-0.5-0.4-0.9-0.9-0.9H16.2v-9.3h24.1c0.5,0,0.9-0.4,0.9-0.9v-1.2C41.3,19.7,40.9,19.3,40.4,19.3"></path>
        <path style="fill:#ffffff;" class="st1" d="M21.4,16.2c0,0.1,0,0.3-0.1,0.5c-0.2,0.6-0.9,1.2-1.8,1.2c-0.7,0-1.3-0.4-1.3-1.3c0-1.4,1.5-1.7,3.1-1.7V16.2z
                 M23.7,19.3c-0.1-0.5-0.1-1.3-0.1-2.1v-3.2c0-1.9-0.8-3.8-3.7-3.8c-1.4,0-2.6,0.4-3.3,0.8l0.4,1.5c0.6-0.4,1.5-0.7,2.4-0.7
                c1.6,0,1.8,1,1.8,1.6v0.1c-3.3,0-5.3,1.1-5.3,3.4c0,1.4,1,2.7,2.8,2.7c1.2,0,2.1-0.5,2.7-1.2h0.1l0.1,1H23.7z"></path>
        <path style="fill:#ffffff;" class="st1" d="M36.5,49.8H44V48h-4.6v0c0.5-0.5,0.9-1,1.3-1.5l3.3-4.2v-1.4h-7.2v1.8h4.4v0c-0.5,0.5-0.9,1-1.3,1.5l-3.4,4.3
                V49.8z"></path>
    </g>
</svg>